<svg width="529" height="526" viewBox="0 0 529 526" fill="none" xmlns="http://www.w3.org/2000/svg">
<g>
<path d="M297 54L318 41L345 47L357 62L345 98L314 127L293 144L279 165V179H297L314 165L324 157L336 170L314 195L324 206L336 230L345 254V282L377 266H413H442L461 282V311L442 344L407 373L369 398L336 404H324L302 428L279 444L264 436L232 411H213L176 404L131 386L108 373L52 326V311L66 293L103 275H167H185L176 244V218V198H185L193 206L206 218L213 211V186V150L221 122L237 107L248 112V141V157H258L270 127L279 98L288 70L297 54Z" fill="white" stroke="black"/>
<path fill-rule="evenodd" clip-rule="evenodd" d="M282 176C285.28 176.117 289.184 176.236 291 175C300.854 171.225 316.672 141.638 334 154C352.549 167.234 322.062 188.9 319 197C336.266 203.071 344.379 228.008 349 247C350.858 254.637 348.673 264.933 351 272C381.626 263.724 448.85 245.324 463 283C465.894 290.7 466.948 302.768 464 312C461.928 318.568 459.25 324.928 456 331C438.648 362.422 398.869 387.727 364 402L337 410L323 412L314 422C303.815 429.706 292.758 438.757 284 448C272.434 443.96 262.2 439.464 253 433C246.563 428.476 239.7 419.751 232 417L215 416L187 411C169.9 405.279 150.643 397.866 135 391C128.15 387.993 121.065 386.927 115 383C101.492 374.253 88.529 364.357 76 355C67.143 348.386 48.55 331.676 45 321C40.85 308.517 55.1 298.837 60 294C87.04 267.331 131.457 272.2 180 273C179.52 267.582 178.516 262.224 177 257C173.388 243.767 163.212 198.366 180 192C181.79 190.35 182.512 190.254 186 190L193 196C196.576 201.149 197.11 208.21 203 211C205.24 212.4 206.276 211.545 209 211V209C213.587 201.136 209.027 183.024 209 174C208.919 146.845 210.561 123.449 224 110C230.574 103.421 245.68 97.115 253 108C258.891 115.506 250.311 140.475 250 152C251.277 152.527 252.625 152.864 254 153C270.247 123.8 273.67 81.771 292 55C301.508 41.114 316.43 31.225 339 40C344.001 42.0343 348.709 44.7245 353 48C366.108 58 360.176 82.536 353 94C334.868 122.966 287.918 136.523 282 176ZM247 256C246.72 232.4 255.059 212.926 266 200C269.342 196.052 275.5 194.905 278 190C274.593 187.074 275.883 183.862 270 183C268.162 184.238 264.3 184.089 261 184C260.473 182.723 260.136 181.375 260 180L261 179C265.091 179.099 269.163 178.42 273 177L276 163C281.851 148.813 294.4 132.747 306 124C327.123 108.064 355.164 93.249 347 57C343.171 54.495 340.281 49.908 336 48C294.288 29.411 280.856 97.958 272 125C268.837 134.658 266.374 156.826 258 160C255.068 162.763 250.152 161.952 246 161C238.293 147.91 245.473 129.271 245 113C242.081 111.162 242.095 110.261 237 110C223.481 123.406 222.985 122.325 218 145C212.752 168.872 226.713 208.133 210 220C208.319 221.344 206.857 221.637 204 222C200.868 219.2 196.472 217.4 194 214C190.151 208.709 190.31 201.991 182 201C173.231 218.67 180.579 246.329 186 262C188.479 269.165 191.463 282.326 202 277C214.34 264.985 221.879 252.964 247 256ZM320 161C314.613 166.513 305.4 170.763 302 178C306.1 178.865 308.154 179.58 309 184H307C301.973 179.1 287.16 183.288 282 187C282.8 188.021 282.355 187.274 283 189H286C292.857 184.427 306.255 190.06 312 191C318.043 182.29 332.541 174.151 325 161H320ZM289 194C285.185 197.048 279.866 198.072 276 201C264.627 209.614 254.316 237.973 254 258L265 264C264.864 254.479 269.05 247.28 276 245C288.468 234.93 299.353 250.833 304 256C304.122 261.732 303.449 267.453 302 273C293.982 278.5 290.666 282.732 277 281V283C282.558 290.538 277.223 305.944 276 313C280.54 315.974 285.321 320.28 291 322C320.923 331.066 335.057 301 341 281C342.746 275.126 346.866 264.337 345 256C338.685 227.787 323.537 193.473 289 194ZM228 241C222.07 241.329 210.343 241.181 206 244C201.059 247.208 202.662 251.138 195 253V245C196.046 243.511 196.73 241.799 197 240C205.213 237.526 210.037 234.093 222 234C223.626 235.563 225.572 236.178 227 238C227.752 239.073 227.6 238.946 228 241ZM277 251C275.126 253.931 273.714 254.5 273 259C275.784 261.654 275.938 263.23 281 264C284.031 260.921 285.715 261.313 286 255C284.2 253.435 284.719 253.034 282 252C280.705 251.123 279.533 251.106 277 251ZM229 261C218 269.316 209.448 270.411 205 286C195.971 317.647 235.566 337.413 260 323V322C254.315 320.747 253.354 318.252 250 315C249.927 311.308 250.262 307.619 251 304C260.651 297.557 260.612 299.471 271 303V289C268.446 285.261 268.4 279.854 266 276C258.865 264.56 248.36 260.691 229 261ZM416 305C414.422 324.963 379.228 362.756 365 372C360.69 374.8 355.743 374.308 351 377C347.806 378.813 332.382 398.218 331 402H336C339.562 399.734 344.412 400.4 349 399L372 391C408.778 374.955 445.912 344.527 456 302C466.631 257.183 391.639 265.912 367 275C359.838 277.642 352.973 278.348 349 284C346.041 288.393 346.233 294.876 344 300C338.167 313.387 318.066 334.786 294 329C288.475 327.555 283.113 325.545 278 323V325C284.738 328.792 290.492 334.809 298 338C302.48 339.9 308.607 339.078 311 343H301C297.767 340.9 292.879 341.611 289 340C281.573 336.916 276.074 329.61 269 327C262.729 339.788 222.909 353.237 208 339C225.739 339.354 236.77 338.426 251 335V334C223.85 335.073 206.99 328.373 200 307C198.315 301.848 200.664 287.663 199 285C197.263 282.978 196.855 283.131 193 283C186.465 278.551 176.144 280.952 167 279C132.1 271.55 89.912 284.136 71 297C65.212 300.937 53.968 308.144 55 318C56.166 329.138 76.037 344.03 84 350C119.309 376.471 161.135 404.857 218 409V408C206.427 401.245 198.26 390.68 188 383L170 378C158.223 372.9 146.065 365.377 136 358C124.355 349.464 114.044 338.413 103 329C100.263 326.667 102.5 325.341 98 324C95.031 327.189 90.718 330.684 86 332V329C100.452 315.184 124.036 291.138 156 302V303C149.803 303.2 143.698 304.557 138 307C138.631 308.754 138.193 307.971 139 309C142.553 322.342 153.673 332.1 161 342C183.535 372.445 212.832 395.129 244 417C253.78 423.862 269.989 438.925 283 441C289.04 429.817 301.511 422.895 309 413C336.61 376.518 374.977 344.1 386 292C382.634 290.842 376.85 290.932 372 291C369.816 292.483 365.307 292.83 362 293V291H363C366.468 287.579 370.334 287.522 376 286C398.884 279.853 417.456 293.008 425 306H422C420.582 305.039 418.727 305.024 416 305ZM393 294C391.333 301 389.667 308 388 315C393.647 316.8 395.462 320.865 402 322C403.966 315.383 408.128 308.836 411 302C405.243 298.128 403.034 294.214 393 294ZM256 304C255.504 305.104 254.828 306.118 254 307C254.631 308.754 254.193 307.971 255 309L258 312L261 311C261.333 309.333 261.667 307.667 262 306L260 304H256ZM126 308C119.369 312.776 108.823 311.3 107 321C111.938 324.451 118.352 332.221 122 337L123 336C125.622 334.371 136.106 322.646 135 322C133.961 317.342 130.208 309.636 126 308ZM384 322C382.137 329.182 376.519 331.873 375 339C377.908 340.921 380.163 344.058 382 347L383 346C388.246 342.651 395.732 335.068 397 328C392 326.445 389.576 323.094 384 322ZM140 328C136.938 333.829 130.458 336.007 129 343C133.727 346.163 135.975 351.021 142 353V352C143.511 350.578 148.633 343.724 149 342C149.678 338.814 142.379 329.134 140 328ZM265 339C271.469 343.642 268.164 355.55 260 356C258.979 355.2 259.726 355.645 258 355C257.196 352.071 256.858 349.034 257 346C259.844 343.878 262.519 341.537 265 339ZM279 340C283.114 340.275 283.761 341.138 287 342C288.712 345.455 290.321 347.2 291 352C288.081 353.838 288.1 354.739 283 355C280.176 350.765 278.117 349.583 278 342C278.8 340.979 278.355 341.726 279 340ZM261 350H264C264.631 348.246 264.193 349.029 265 348L264 345L262 346C261.473 347.277 261.136 348.625 261 350ZM283 345C282.6 347.266 282.082 346.084 283 348C284.021 348.8 283.274 348.355 285 349V346L283 345ZM153 347C151.739 349.695 150.022 352.971 148 355C148.631 356.754 148.193 355.971 149 357C154.34 362.6 165.393 370.388 174 372V371C165.805 365.369 162.227 350.734 153 347ZM369 347C366.329 355.542 358.584 360.206 356 369H357C361.758 362.459 372.867 359.784 376 352C373.282 350.193 372.456 348.223 369 347Z" fill="black"/>
</g>
<defs>
</defs>
</svg>
