<svg width="200" height="500" viewBox="0 0 200 500" fill="none" xmlns="http://www.w3.org/2000/svg">
<path d="M199.5 250C199.5 318.988 188.314 381.422 170.246 426.591C161.212 449.177 150.467 467.421 138.561 480.01C126.656 492.599 113.625 499.5 100 499.5C86.3747 499.5 73.3437 492.599 61.4388 480.01C49.5328 467.421 38.7878 449.177 29.7536 426.591C11.6861 381.422 0.5 318.988 0.5 250C0.5 181.012 11.6861 118.578 29.7536 73.409C38.7878 50.8233 49.5328 32.5793 61.4388 19.9898C73.3437 7.40139 86.3747 0.5 100 0.5C113.625 0.5 126.656 7.40139 138.561 19.9898C150.467 32.5793 161.212 50.8233 170.246 73.409C188.314 118.578 199.5 181.012 199.5 250Z" stroke="white"/>
</svg>
