<svg width="217" height="62" viewBox="0 0 217 62" fill="none" xmlns="http://www.w3.org/2000/svg">
<g clip-path="url(#clip0)">
<path d="M22.372 14.5269H0V49.7474H4.65875V34.2224H22.0943V30.0519H4.65875V18.6974H22.371V14.5269H22.372Z" fill="white"/>
<path d="M95.0827 32.1215C100.249 31.6114 103.801 28.5374 103.801 23.9038C103.801 19.0381 100.526 14.5269 91.9918 14.5269H78.7998V49.7474H91.9918C100.249 49.7474 104.999 46.5647 104.999 40.2158C104.999 34.8871 101.586 32.3535 95.0827 32.1215ZM98.9571 24.3668C98.9571 28.1203 96.3735 29.9892 91.9918 29.9892H83.4586V18.6974H91.9918C96.3735 18.6974 98.9571 20.6593 98.9571 24.3668ZM83.4586 45.5769V34.1607H92.1303C97.5277 34.1607 100.156 35.9993 100.156 39.8918C100.156 43.7383 97.5277 45.5769 92.1303 45.5769H83.4586Z" fill="white"/>
<path d="M66.2563 14.0255C62.724 14.0255 61.2517 16.0216 61.2517 17.9444C61.2517 17.9483 61.2527 17.9522 61.2527 17.9561C61.2527 18.0051 61.2633 18.0521 61.2653 18.1001C61.3364 19.7507 62.6811 21.0694 64.3416 21.0694C66.04 21.0694 67.4159 19.6929 67.4286 17.9894C67.4286 17.9816 67.4315 17.9738 67.4315 17.965C67.4315 17.9493 67.4276 17.9356 67.4267 17.9199C67.4101 17.4353 67.3496 17.0241 67.2863 16.8342C69.7146 17.3521 71.4082 21.7145 71.4082 27.4819C71.4082 37.6115 65.4924 46.4852 58.8964 46.4852C54.7746 46.4852 52.4934 44.1934 52.4934 38.7952C52.4934 35.024 52.9349 32.5099 54.9218 21.0488C55.8046 16.0207 56.0657 14.5257 56.0657 14.5257H51.3203C51.3203 14.5257 49.844 23.1194 49.4026 25.5591C46.9742 39.4599 43.2861 46.9287 37.9949 46.9287C34.4626 46.9287 32.5488 43.1576 32.5488 37.9816C32.5488 30.7351 36.1805 21.4668 44.8646 14.2947L44.5694 14C42.5825 14.7391 40.7428 14.4924 38.9021 14.4924C36.1786 14.4924 35.1486 14.1224 33.529 14.1224C30.2911 14.1224 29.1129 16.7109 27.8618 21.0733L28.156 21.2211C29.0389 18.8549 30.5113 18.4848 32.425 18.4848C33.455 18.4848 34.8534 18.707 36.4728 18.707C37.2826 18.707 38.2395 18.6326 39.1223 18.4848C31.321 25.4357 27.6162 34.4327 27.6162 40.4967C27.6162 46.8553 31.1485 50.2573 35.4175 50.2573C40.1279 50.2573 45.2057 47.0041 48.8121 34.0637C48.5909 35.6164 48.0023 39.2397 48.0023 41.1624C48.0023 47.2997 51.0201 50.2573 56.3191 50.2573C65.2244 50.2573 73.6883 36.0598 73.6883 25.6345C73.6893 20.1628 71.7755 14.0255 66.2563 14.0255Z" fill="white"/>
</g>
<path d="M116.118 50V44.36H110.572V50H116.118ZM155.5 49.812L148.45 14.28H138.674L131.624 49.812L122.882 14.28H117.853L126.642 50H136.512L143.562 14.515L150.612 50H160.482L169.271 14.28H164.242L155.5 49.812ZM179.368 50V14.28H174.621V50H179.368ZM188.299 14.28V50H193.046V36.652H201.459C209.919 36.652 215.042 32.657 215.042 25.466C215.042 18.275 209.919 14.28 201.459 14.28H188.299ZM193.046 32.422V18.51H201.6C207.099 18.51 210.107 20.766 210.107 25.466C210.107 30.166 207.099 32.422 201.6 32.422H193.046Z" fill="white"/>
<defs>
<clipPath id="clip0">
<rect width="105" height="36.3462" fill="white" transform="translate(0 14)"/>
</clipPath>
</defs>
</svg>
