<svg width="119" height="41" viewBox="0 0 119 41" fill="none" xmlns="http://www.w3.org/2000/svg">
<path d="M25.3549 0.594238H0V40.3245H5.27992V22.8117H25.0402V18.1071H5.27992V5.29879H25.3538V0.594238H25.3549Z" fill="#fff"/>
<path d="M107.761 20.4417C113.616 19.8663 117.642 16.3987 117.642 11.1718C117.642 5.68311 113.93 0.594238 104.258 0.594238H89.3071V40.3245H104.258C113.616 40.3245 119 36.7343 119 29.5725C119 23.5615 115.132 20.7034 107.761 20.4417ZM112.152 11.6941C112.152 15.9282 109.224 18.0364 104.258 18.0364H94.5871V5.29879H104.258C109.224 5.29879 112.152 7.51192 112.152 11.6941ZM94.5871 35.62V22.7421H104.415C110.532 22.7421 113.511 24.8161 113.511 29.207C113.511 33.546 110.532 35.62 104.415 35.62H94.5871Z" fill="#fff"/>
<path d="M75.0914 0.0287132C71.0881 0.0287132 69.4195 2.28049 69.4195 4.44945C69.4195 4.45386 69.4206 4.45828 69.4206 4.4627C69.4206 4.51792 69.4327 4.57093 69.4349 4.62504C69.5155 6.48698 71.0395 7.97455 72.9214 7.97455C74.8463 7.97455 76.4056 6.42183 76.42 4.50025C76.42 4.49141 76.4233 4.48258 76.4233 4.47264C76.4233 4.45497 76.4189 4.43951 76.4178 4.42184C76.399 3.87518 76.3305 3.41135 76.2587 3.19711C79.0108 3.78131 80.9302 8.70232 80.9302 15.2081C80.9302 26.6348 74.2256 36.6447 66.7502 36.6447C62.0788 36.6447 59.4935 34.0594 59.4935 27.97C59.4935 23.716 59.9938 20.88 62.2456 7.95136C63.2461 2.27939 63.5421 0.593039 63.5421 0.593039H58.1639C58.1639 0.593039 56.4908 10.2871 55.9905 13.0391C53.2384 28.7199 49.0585 37.145 43.0618 37.145C39.0585 37.145 36.8896 32.891 36.8896 27.0523C36.8896 18.8779 41.0055 8.42292 50.8475 0.332411L50.5129 0C48.2611 0.833788 46.1761 0.555491 44.09 0.555491C41.0033 0.555491 39.836 0.138044 38.0005 0.138044C34.3308 0.138044 32.9956 3.05796 31.5776 7.97897L31.9111 8.14572C32.9117 5.4765 34.5804 5.05905 36.7493 5.05905C37.9166 5.05905 39.5014 5.30974 41.3368 5.30974C42.2545 5.30974 43.339 5.22581 44.3395 5.05905C35.4981 12.9 31.2993 23.049 31.2993 29.8894C31.2993 37.0622 35.3026 40.8998 40.1408 40.8998C45.4792 40.8998 51.234 37.23 55.3213 22.6327C55.0706 24.3842 54.4035 28.4714 54.4035 30.6403C54.4035 37.5635 57.8237 40.8998 63.8292 40.8998C73.9219 40.8998 83.5143 24.8844 83.5143 13.1242C83.5155 6.95192 81.3465 0.0287132 75.0914 0.0287132Z" fill="#fff"/>
</svg>
