<svg width="476" height="38" viewBox="0 0 476 38" fill="none" xmlns="http://www.w3.org/2000/svg">
<path d="M38.54 36.812L31.49 1.28H21.714L14.664 36.812L5.922 1.28H0.893L9.682 37H19.552L26.602 1.515L33.652 37H43.522L52.311 1.28H47.282L38.54 36.812ZM69.7458 37.517C79.8038 37.517 86.7598 30.091 86.7598 19.14C86.7598 8.189 79.8038 0.762999 69.7458 0.762999C59.6878 0.762999 52.7318 8.189 52.7318 19.14C52.7318 30.091 59.6878 37.517 69.7458 37.517ZM69.7458 33.522C62.5548 33.522 57.6668 27.6 57.6668 19.14C57.6668 10.68 62.5548 4.758 69.7458 4.758C76.9368 4.758 81.8248 10.68 81.8248 19.14C81.8248 27.6 76.9368 33.522 69.7458 33.522ZM109.33 21.725C114.124 20.315 116.991 16.743 116.991 11.855C116.991 5.416 112.056 1.28 104.16 1.28H91.0001V37H95.7471V22.43H104.16H104.301L112.902 37H118.448L109.33 21.725ZM104.254 5.51C109.095 5.51 112.056 7.766 112.056 11.855C112.056 15.944 109.095 18.2 104.254 18.2H95.7471V5.51H104.254ZM132.31 18.2L148.854 1.28H142.697L126.576 17.777V1.28H121.829V37H126.576V18.717L144.342 37H150.64L132.31 18.2ZM162.335 37.517C171.077 37.517 176.858 33.052 176.858 26.66C176.858 21.067 173.615 18.529 166.424 16.931L161.959 15.944C156.46 14.722 154.157 13.594 154.157 10.21C154.157 6.92 157.729 4.758 162.241 4.758C166.565 4.758 169.855 6.497 170.983 10.586H175.918C174.884 4.711 169.761 0.762999 162.241 0.762999C155.05 0.762999 149.363 4.993 149.363 10.68C149.363 16.038 153.405 18.858 158.998 20.08L163.463 21.067C169.197 22.336 172.064 23.276 172.064 27.177C172.064 30.89 168.633 33.522 162.335 33.522C157.541 33.522 153.828 31.078 153.17 26.237H148.235C149.316 33.24 154.768 37.517 162.335 37.517ZM188.062 27.882C187.122 32.347 186.511 34.791 186.511 36.06C186.511 37.047 186.981 37.47 187.545 37.47C189.378 37.47 192.668 33.522 194.266 30.561L193.984 30.326C192.339 33.193 191.305 33.992 190.788 33.992C190.506 33.992 190.318 33.804 190.318 33.052C190.318 30.89 193.232 17.965 194.031 14.581L193.843 14.44C192.715 15.756 190.929 17.401 187.263 19.704L187.498 19.986C188.579 19.328 188.955 19.093 189.284 19.093C189.566 19.093 189.66 19.328 189.66 19.751C189.66 20.127 189.566 20.597 189.472 21.114L188.062 27.882ZM195.253 8.941C195.253 8.095 194.689 7.719 194.031 7.719C192.386 7.719 191.493 9.693 191.493 11.15C191.493 11.996 192.01 12.372 192.668 12.372C194.219 12.372 195.253 10.257 195.253 8.941ZM213.842 30.373C212.667 32.535 211.351 33.616 210.881 33.616C210.552 33.616 210.364 33.381 210.364 32.723C210.364 30.044 211.915 24.122 212.62 20.55C212.949 18.905 213.09 17.683 213.09 16.837C213.09 15.098 212.291 14.675 211.586 14.675C208.202 14.675 201.011 25.203 198.567 29.809C199.272 26.613 200.87 19.986 202.186 14.675L201.951 14.534C200.823 15.85 198.943 17.589 195.418 19.751L195.653 20.033C196.734 19.375 197.016 19.14 197.345 19.14C197.721 19.14 197.815 19.469 197.815 19.845C197.815 20.315 197.674 20.926 197.627 21.114C194.713 34.603 195.089 35.966 193.256 36.859V37.094C193.773 37.047 194.478 37 195.465 37C197.204 37 197.956 37.047 198.708 37.094V36.859C198.05 36.577 197.815 36.107 197.815 35.402C197.815 31.266 200.588 27.271 203.643 22.994C205.711 20.127 207.45 18.012 208.672 18.012C209.283 18.012 209.518 18.388 209.518 19.328C209.518 20.174 209.236 21.537 208.907 23.135C207.779 28.446 205.852 34.885 205.852 36.154C205.852 37.141 206.275 37.47 206.839 37.47C208.531 37.47 211.868 34.65 214.124 30.561L213.842 30.373ZM227.17 1.28V37H231.917V23.652H240.33C248.79 23.652 253.913 19.657 253.913 12.466C253.913 5.275 248.79 1.28 240.33 1.28H227.17ZM231.917 19.422V5.51H240.471C245.97 5.51 248.978 7.766 248.978 12.466C248.978 17.166 245.97 19.422 240.471 19.422H231.917ZM275.64 21.725C280.434 20.315 283.301 16.743 283.301 11.855C283.301 5.416 278.366 1.28 270.47 1.28H257.31V37H262.057V22.43H270.47H270.611L279.212 37H284.758L275.64 21.725ZM270.564 5.51C275.405 5.51 278.366 7.766 278.366 11.855C278.366 15.944 275.405 18.2 270.564 18.2H262.057V5.51H270.564ZM302.579 37.517C312.637 37.517 319.593 30.091 319.593 19.14C319.593 8.189 312.637 0.762999 302.579 0.762999C292.521 0.762999 285.565 8.189 285.565 19.14C285.565 30.091 292.521 37.517 302.579 37.517ZM302.579 33.522C295.388 33.522 290.5 27.6 290.5 19.14C290.5 10.68 295.388 4.758 302.579 4.758C309.77 4.758 314.658 10.68 314.658 19.14C314.658 27.6 309.77 33.522 302.579 33.522ZM337.135 22.007H350.013C349.872 29.433 345.219 33.522 338.686 33.522C331.495 33.522 326.654 27.647 326.654 19.14C326.654 10.68 331.401 4.758 338.498 4.758C344.185 4.758 347.71 7.813 349.308 12.325H354.243C352.41 5.181 346.817 0.762999 338.498 0.762999C328.675 0.762999 321.719 8.189 321.719 19.14C321.719 30.091 328.863 37.517 338.122 37.517C345.36 37.517 349.167 32.817 350.624 27.976V37H354.76V17.777H337.135V22.007ZM378.409 21.725C383.203 20.315 386.07 16.743 386.07 11.855C386.07 5.416 381.135 1.28 373.239 1.28H360.079V37H364.826V22.43H373.239H373.38L381.981 37H387.527L378.409 21.725ZM373.333 5.51C378.174 5.51 381.135 7.766 381.135 11.855C381.135 15.944 378.174 18.2 373.333 18.2H364.826V5.51H373.333ZM395.655 20.691H413.844V16.461H395.655V5.51H414.173V1.28H390.908V37H414.596V32.77H395.655V20.691ZM430.588 37.517C439.33 37.517 445.111 33.052 445.111 26.66C445.111 21.067 441.868 18.529 434.677 16.931L430.212 15.944C424.713 14.722 422.41 13.594 422.41 10.21C422.41 6.92 425.982 4.758 430.494 4.758C434.818 4.758 438.108 6.497 439.236 10.586H444.171C443.137 4.711 438.014 0.762999 430.494 0.762999C423.303 0.762999 417.616 4.993 417.616 10.68C417.616 16.038 421.658 18.858 427.251 20.08L431.716 21.067C437.45 22.336 440.317 23.276 440.317 27.177C440.317 30.89 436.886 33.522 430.588 33.522C425.794 33.522 422.081 31.078 421.423 26.237H416.488C417.569 33.24 423.021 37.517 430.588 37.517ZM460.545 37.517C469.287 37.517 475.068 33.052 475.068 26.66C475.068 21.067 471.825 18.529 464.634 16.931L460.169 15.944C454.67 14.722 452.367 13.594 452.367 10.21C452.367 6.92 455.939 4.758 460.451 4.758C464.775 4.758 468.065 6.497 469.193 10.586H474.128C473.094 4.711 467.971 0.762999 460.451 0.762999C453.26 0.762999 447.573 4.993 447.573 10.68C447.573 16.038 451.615 18.858 457.208 20.08L461.673 21.067C467.407 22.336 470.274 23.276 470.274 27.177C470.274 30.89 466.843 33.522 460.545 33.522C455.751 33.522 452.038 31.078 451.38 26.237H446.445C447.526 33.24 452.978 37.517 460.545 37.517Z" fill="white"/>
</svg>
